<svg width="331" height="242" viewBox="0 0 331 242" fill="none" xmlns="http://www.w3.org/2000/svg">
<g clip-path="url(#clip0_141_856)">
<g filter="url(#filter0_d_141_856)">
<path d="M0 165L32 145L65 154L91 145L133 134L162 117L192 97L221 105H262L291 117L326 105" stroke="#D25D09" stroke-width="2"/>
</g>
<circle cx="4.615" cy="164.615" r="4.615" fill="#D25D09"/>
<circle cx="31.615" cy="146.615" r="4.615" fill="#D25D09"/>
<circle cx="62.615" cy="155.615" r="4.615" fill="#D25D09"/>
<circle cx="98.615" cy="141.615" r="4.615" fill="#D25D09"/>
<circle cx="131.615" cy="132.615" r="4.615" fill="#D25D09"/>
<circle cx="188.615" cy="96.615" r="4.615" fill="#D25D09"/>
<circle cx="217.615" cy="105.615" r="4.615" fill="#D25D09"/>
<circle cx="259.615" cy="105.615" r="4.615" fill="#D25D09"/>
<circle cx="290.615" cy="114.615" r="4.615" fill="#D25D09"/>
<circle cx="321.615" cy="105.615" r="4.615" fill="#D25D09"/>
<g filter="url(#filter1_d_141_856)">
<g filter="url(#filter2_d_141_856)">
<path d="M330.23 146L298.23 126L265.23 135L239.23 126L197.23 115L168.23 98L138.23 78L109.23 86H68.23L39.23 98L4.22998 86" stroke="#4567B7" stroke-width="2"/>
</g>
<circle cx="4.615" cy="4.615" r="4.26" transform="matrix(-1 0 0 1 330.23 141)" fill="#4567B7" stroke="#4567B7" stroke-width="0.71"/>
<circle cx="4.615" cy="4.615" r="4.26" transform="matrix(-1 0 0 1 303.23 123)" fill="#4567B7" stroke="#4567B7" stroke-width="0.71"/>
<circle cx="4.615" cy="4.615" r="4.26" transform="matrix(-1 0 0 1 272.23 132)" fill="#4567B7" stroke="#4567B7" stroke-width="0.71"/>
<circle cx="4.615" cy="4.615" r="4.26" transform="matrix(-1 0 0 1 236.23 118)" fill="#4567B7" stroke="#4567B7" stroke-width="0.71"/>
<circle cx="4.615" cy="4.615" r="4.26" transform="matrix(-1 0 0 1 203.23 109)" fill="#4567B7" stroke="#4567B7" stroke-width="0.71"/>
<circle cx="4.615" cy="4.615" r="4.26" transform="matrix(-1 0 0 1 146.23 73)" fill="#4567B7" stroke="#4567B7" stroke-width="0.71"/>
<circle cx="4.615" cy="4.615" r="4.26" transform="matrix(-1 0 0 1 117.23 82)" fill="#4567B7" stroke="#4567B7" stroke-width="0.71"/>
<circle cx="4.615" cy="4.615" r="4.26" transform="matrix(-1 0 0 1 75.23 82)" fill="#4567B7" stroke="#4567B7" stroke-width="0.71"/>
<circle cx="4.615" cy="4.615" r="4.26" transform="matrix(-1 0 0 1 44.23 91)" fill="#4567B7" stroke="#4567B7" stroke-width="0.71"/>
<circle cx="4.615" cy="4.615" r="4.26" transform="matrix(-1 0 0 1 13.23 82)" fill="#4567B7" stroke="#4567B7" stroke-width="0.71"/>
</g>
</g>
<defs>
<filter id="filter0_d_141_856" x="-15.83" y="93.6145" width="357.454" height="100.534" filterUnits="userSpaceOnUse" color-interpolation-filters="sRGB">
<feFlood flood-opacity="0" result="BackgroundImageFix"/>
<feColorMatrix in="SourceAlpha" type="matrix" values="0 0 0 0 0 0 0 0 0 0 0 0 0 0 0 0 0 0 127 0" result="hardAlpha"/>
<feMorphology radius="1" operator="dilate" in="SourceAlpha" result="effect1_dropShadow_141_856"/>
<feOffset dy="13"/>
<feGaussianBlur stdDeviation="7.15"/>
<feComposite in2="hardAlpha" operator="out"/>
<feColorMatrix type="matrix" values="0 0 0 0 1 0 0 0 0 0.434888 0 0 0 0 0.0291667 0 0 0 1 0"/>
<feBlend mode="normal" in2="BackgroundImageFix" result="effect1_dropShadow_141_856"/>
<feBlend mode="normal" in="SourceGraphic" in2="effect1_dropShadow_141_856" result="shape"/>
</filter>
<filter id="filter1_d_141_856" x="-16.0943" y="59" width="366.854" height="117.23" filterUnits="userSpaceOnUse" color-interpolation-filters="sRGB">
<feFlood flood-opacity="0" result="BackgroundImageFix"/>
<feColorMatrix in="SourceAlpha" type="matrix" values="0 0 0 0 0 0 0 0 0 0 0 0 0 0 0 0 0 0 127 0" result="hardAlpha"/>
<feOffset dy="6"/>
<feGaussianBlur stdDeviation="10"/>
<feComposite in2="hardAlpha" operator="out"/>
<feColorMatrix type="matrix" values="0 0 0 0 0.270588 0 0 0 0 0.403922 0 0 0 0 0.717647 0 0 0 1 0"/>
<feBlend mode="normal" in2="BackgroundImageFix" result="effect1_dropShadow_141_856"/>
<feBlend mode="normal" in="SourceGraphic" in2="effect1_dropShadow_141_856" result="shape"/>
</filter>
<filter id="filter2_d_141_856" x="-11.3943" y="74.6145" width="357.454" height="100.534" filterUnits="userSpaceOnUse" color-interpolation-filters="sRGB">
<feFlood flood-opacity="0" result="BackgroundImageFix"/>
<feColorMatrix in="SourceAlpha" type="matrix" values="0 0 0 0 0 0 0 0 0 0 0 0 0 0 0 0 0 0 127 0" result="hardAlpha"/>
<feMorphology radius="1" operator="dilate" in="SourceAlpha" result="effect1_dropShadow_141_856"/>
<feOffset dy="13"/>
<feGaussianBlur stdDeviation="7.15"/>
<feComposite in2="hardAlpha" operator="out"/>
<feColorMatrix type="matrix" values="0 0 0 0 1 0 0 0 0 0.434888 0 0 0 0 0.0291667 0 0 0 1 0"/>
<feBlend mode="normal" in2="BackgroundImageFix" result="effect1_dropShadow_141_856"/>
<feBlend mode="normal" in="SourceGraphic" in2="effect1_dropShadow_141_856" result="shape"/>
</filter>
<clipPath id="clip0_141_856">
<rect width="331" height="242" fill="white"/>
</clipPath>
</defs>
</svg>
