<svg width="146" height="20" viewBox="0 0 146 20" fill="none" xmlns="http://www.w3.org/2000/svg">
<g clip-path="url(#clip0_225_1627)">
<path d="M4.628 16.4438V19.7258C2.816 19.7258 1.273 19.0888 0 17.8398L2.351 15.4888C2.988 16.1258 3.747 16.4438 4.629 16.4438H4.628ZM8.351 16.9578L6.906 15.5128C7.567 14.8758 7.886 14.1168 7.886 13.2108V0.133789H11.192V13.2108C11.192 14.9988 10.531 16.5408 9.257 17.8388L8.351 16.9568V16.9578ZM6.91 15.5108L9.257 17.8398C7.976 19.1208 6.408 19.7078 4.625 19.7258V16.4458C5.525 16.4458 6.287 16.1338 6.911 15.5108H6.91Z" fill="black"/>
<path d="M22.7361 1.81571C23.8321 2.89771 24.3871 4.20171 24.3871 5.72771C24.3871 7.25371 23.8321 8.57171 22.7361 9.63971C21.6541 10.7217 20.3641 11.2767 18.8241 11.2767C17.2841 11.2767 15.9941 10.7217 14.9121 9.63971C13.8301 8.55771 13.2751 7.26771 13.2751 5.72771C13.2751 4.18771 13.8301 2.89771 14.9121 1.81571C15.9801 0.733711 17.2841 0.178711 18.8241 0.178711C20.3641 0.178711 21.6541 0.733711 22.7361 1.81571ZM16.7271 3.64171C16.1501 4.21871 15.8731 4.91771 15.8731 5.72771C15.8731 6.53771 16.1501 7.24771 16.7271 7.82471C17.3041 8.40171 18.0141 8.67871 18.8241 8.67871C19.6341 8.67871 20.3331 8.40171 20.9101 7.82471C21.4981 7.23671 21.7751 6.53771 21.7751 5.72771C21.7751 4.91771 21.4871 4.21871 20.9101 3.64171C20.3331 3.06471 19.6341 2.77671 18.8241 2.77671C18.0141 2.77671 17.3151 3.05371 16.7271 3.64171Z" fill="#597C8F"/>
<path d="M101.767 1.81571C102.863 2.89771 103.418 4.20171 103.418 5.72771C103.418 7.25371 102.863 8.57171 101.767 9.63971C100.685 10.7217 99.395 11.2767 97.855 11.2767C96.315 11.2767 95.025 10.7217 93.943 9.63971C92.861 8.55771 92.306 7.26771 92.306 5.72771C92.306 4.18771 92.861 2.89771 93.943 1.81571C95.011 0.733711 96.315 0.178711 97.855 0.178711C99.395 0.178711 100.685 0.733711 101.767 1.81571ZM95.759 3.64171C95.182 4.21871 94.905 4.91771 94.905 5.72771C94.905 6.53771 95.182 7.24771 95.759 7.82471C96.336 8.40171 97.046 8.67871 97.856 8.67871C98.666 8.67871 99.365 8.40171 99.942 7.82471C100.53 7.23671 100.807 6.53771 100.807 5.72771C100.807 4.91771 100.519 4.21871 99.942 3.64171C99.365 3.06471 98.666 2.77671 97.856 2.77671C97.046 2.77671 96.347 3.05371 95.759 3.64171Z" fill="#597C8F"/>
<path d="M128.596 1.81571C129.692 2.89771 130.247 4.20171 130.247 5.72771C130.247 7.25371 129.692 8.57171 128.596 9.63971C127.514 10.7217 126.224 11.2767 124.684 11.2767C123.144 11.2767 121.854 10.7217 120.772 9.63971C119.69 8.55771 119.135 7.26771 119.135 5.72771C119.135 4.18771 119.69 2.89771 120.772 1.81571C121.84 0.733711 123.144 0.178711 124.684 0.178711C126.224 0.178711 127.514 0.733711 128.596 1.81571ZM122.588 3.64171C122.011 4.21871 121.734 4.91771 121.734 5.72771C121.734 6.53771 122.011 7.24771 122.588 7.82471C123.165 8.40171 123.875 8.67871 124.685 8.67871C125.495 8.67871 126.194 8.40171 126.771 7.82471C127.359 7.23671 127.636 6.53771 127.636 5.72771C127.636 4.91771 127.348 4.21871 126.771 3.64171C126.194 3.06471 125.495 2.77671 124.685 2.77671C123.875 2.77671 123.176 3.05371 122.588 3.64171Z" fill="#597C8F"/>
<path d="M31.6911 11.436C30.0991 11.436 28.7521 10.873 27.6501 9.771C26.5481 8.644 25.9851 7.298 25.9851 5.706C25.9851 4.114 26.5481 2.816 27.6501 1.69C28.7521 0.564 30.0991 0 31.6911 0V3.282C31.3481 3.282 31.0301 3.331 30.7361 3.453C30.4181 3.575 30.1731 3.747 29.9281 3.992C29.7081 4.212 29.5361 4.482 29.4141 4.776C29.2921 5.07 29.2431 5.388 29.2431 5.707C29.2431 6.393 29.4631 6.956 29.9291 7.446C30.4191 7.936 30.9821 8.181 31.6921 8.181H36.5651C38.1571 8.181 39.5041 8.744 40.6061 9.846C41.7321 10.972 42.2961 12.319 42.2961 13.887C42.2961 15.455 41.7331 16.801 40.6061 17.928C39.5041 19.03 38.1571 19.593 36.5651 19.593V16.311C36.9081 16.311 37.2261 16.262 37.5201 16.14C37.8381 16.018 38.1081 15.846 38.3281 15.626C38.5481 15.406 38.7201 15.161 38.8421 14.842C38.9641 14.548 39.0381 14.23 39.0381 13.887C39.0381 13.226 38.7691 12.663 38.3031 12.173C37.8131 11.683 37.2501 11.438 36.5641 11.438H31.6911V11.436Z" fill="black"/>
<path d="M47.09 0.133789V8.28879H53.943L57.2 11.5698V19.7248H53.943V11.5698H47.09V19.7248H43.833V0.133789H47.09Z" fill="black"/>
<path d="M135.041 0.133789V8.28879H141.894L145.151 11.5698V19.7248H141.894V11.5698H135.041V19.7248H131.784V0.133789H135.041Z" fill="black"/>
<path d="M69.7531 0.274133C69.7531 2.52713 68.9691 4.46213 67.3531 6.05313C65.7611 7.64513 63.8021 8.42813 61.5741 8.42813C59.3461 8.42813 57.4111 7.64413 55.8191 6.05313C54.2271 4.46113 53.4441 2.50213 53.4441 0.274133V0.161133H56.7011V0.274133C56.7011 1.62113 57.1661 2.77213 58.0971 3.70313C59.0521 4.68213 60.2281 5.14813 61.5741 5.14813C62.9201 5.14813 64.0721 4.65813 65.0271 3.70313C65.9821 2.74813 66.4961 1.59713 66.4961 0.274133H69.7531Z" fill="#597C8F"/>
<path d="M69.8491 16.4438L68.1841 19.7258H64.5601L74.3551 0.133789L80.8941 13.2108H77.2211L74.3561 7.45579L71.4661 13.2108L69.8501 16.4428L69.8491 16.4438ZM84.1501 19.7258H80.5011L78.8851 16.4688H82.5091L84.1501 19.7258Z" fill="black"/>
<path d="M109.773 9.92979L119.569 19.7258H114.965L106.492 11.3018L105.121 9.95479L106.492 8.58379L114.964 0.133789H119.568L109.772 9.92979H109.773Z" fill="black"/>
</g>
<defs>
<clipPath id="clip0_225_1627">
<rect width="145.151" height="19.726" fill="white"/>
</clipPath>
</defs>
</svg>
